<?xml version="1.0" encoding="UTF-8"?>
<svg width="19px" height="18px" viewBox="0 0 19 18" version="1.1" xmlns="http://www.w3.org/2000/svg" xmlns:xlink="http://www.w3.org/1999/xlink">
    <!-- Generator: Sketch 55.2 (78181) - https://sketchapp.com -->
    <title>coffee</title>
    <desc>Created with Sketch.</desc>
    <g id="Welcome" stroke="none" stroke-width="1" fill="none" fill-rule="evenodd">
        <g id="Desktop-HD" transform="translate(-336.000000, -1945.000000)" fill="#1D2230" fill-rule="nonzero">
            <g id="Footer" transform="translate(-10.000000, 1916.000000)">
                <g id="coffee" transform="translate(347.000000, 30.000000)">
                    <path d="M12.8,6.6 L13.6,6.6 C14.8150264,6.6 15.8,7.58497355 15.8,8.8 C15.8,10.0150264 14.8150264,11 13.6,11 L12.8,11 C12.2477153,11 11.8,11.4477153 11.8,12 C11.8,12.5522847 12.2477153,13 12.8,13 L13.6,13 C15.9195959,13 17.8,11.1195959 17.8,8.8 C17.8,6.48040405 15.9195959,4.6 13.6,4.6 L12.8,4.6 C12.2477153,4.6 11.8,5.04771525 11.8,5.6 C11.8,6.15228475 12.2477153,6.6 12.8,6.6 Z" id="Path"></path>
                    <path d="M-1,5.6 C-1,5.04771525 -0.55228475,4.6 0,4.6 L12.8,4.6 C13.3522847,4.6 13.8,5.04771525 13.8,5.6 L13.8,12.8 C13.8,15.1195959 11.9195959,17 9.6,17 L3.2,17 C0.880404051,17 -1,15.1195959 -1,12.8 L-1,5.6 Z M1,6.6 L1,12.8 C1,14.0150264 1.98497355,15 3.2,15 L9.6,15 C10.8150264,15 11.8,14.0150264 11.8,12.8 L11.8,6.6 L1,6.6 Z" id="Path"></path>
                    <path d="M2.2,0 L2.2,2.4 C2.2,2.95228475 2.64771525,3.4 3.2,3.4 C3.75228475,3.4 4.2,2.95228475 4.2,2.4 L4.2,0 C4.2,-0.55228475 3.75228475,-1 3.2,-1 C2.64771525,-1 2.2,-0.55228475 2.2,0 Z" id="Path"></path>
                    <path d="M5.4,0 L5.4,2.4 C5.4,2.95228475 5.84771525,3.4 6.4,3.4 C6.95228475,3.4 7.4,2.95228475 7.4,2.4 L7.4,0 C7.4,-0.55228475 6.95228475,-1 6.4,-1 C5.84771525,-1 5.4,-0.55228475 5.4,0 Z" id="Path"></path>
                    <path d="M8.6,0 L8.6,2.4 C8.6,2.95228475 9.04771525,3.4 9.6,3.4 C10.1522847,3.4 10.6,2.95228475 10.6,2.4 L10.6,0 C10.6,-0.55228475 10.1522847,-1 9.6,-1 C9.04771525,-1 8.6,-0.55228475 8.6,0 Z" id="Path"></path>
                </g>
            </g>
        </g>
    </g>
</svg>