<?xml version="1.0" encoding="UTF-8"?>
<svg width="82px" height="84px" viewBox="0 0 82 84" version="1.1" xmlns="http://www.w3.org/2000/svg" xmlns:xlink="http://www.w3.org/1999/xlink">
    <!-- Generator: Sketch 55.2 (78181) - https://sketchapp.com -->
    <title>feather</title>
    <desc>Created with Sketch.</desc>
    <g id="Welcome" stroke="none" stroke-width="1" fill="none" fill-rule="evenodd">
        <g id="Desktop-HD-Dark" transform="translate(-970.000000, -838.000000)" fill="#C2C2C2" fill-rule="nonzero">
            <g id="Features" transform="translate(21.000000, 755.000000)">
                <g id="Lightweight" transform="translate(949.000000, 85.000000)">
                    <g id="feather" transform="translate(2.913357, 0.000000)">
                        <path d="M71.7253084,42.6631842 C81.513613,32.5837776 81.513613,16.2654287 71.7253084,6.18602215 C61.9051146,-3.92622205 45.9584749,-3.92622205 36.1382811,6.18602215 L10.1261614,32.9717364 C9.76369263,33.344985 9.56094207,33.8447928 9.56094207,34.3650794 L9.56094207,68.0952381 C9.56094207,69.1998076 10.4563726,70.0952381 11.5609421,70.0952381 L44.3169446,70.0952381 C44.8585666,70.0952381 45.3770301,69.8755676 45.7537869,69.4864549 L71.7273701,42.6610581 L71.7253084,42.6631842 Z M43.4695542,66.0952381 L13.5609421,66.0952381 L13.5609421,35.1763934 L39.0078424,8.97270801 C47.2570061,0.478215995 60.6065834,0.478215995 68.8557471,8.97270801 C77.1368001,17.5000376 77.1368001,31.3491687 68.8557471,39.8764983 L68.8536855,39.8786245 L43.4695542,66.0952381 Z" id="Path"></path>
                        <path d="M52.5162823,23.0511015 L-1.43478064,78.6066571 C-2.20430269,79.3990645 -2.1857504,80.6652586 -1.39334293,81.4347806 C-0.600935464,82.2043027 0.665258586,82.1857504 1.43478064,81.3933429 L55.3858436,25.8377874 C56.1553657,25.0453799 56.1368134,23.7791859 55.3444059,23.0096638 C54.5519984,22.2401418 53.2858044,22.258694 52.5162823,23.0511015 Z" id="Path"></path>
                        <path d="M59.731534,50.2222222 L26.9755315,50.2222222 C25.870962,50.2222222 24.9755315,51.1176527 24.9755315,52.2222222 C24.9755315,53.3267917 25.870962,54.2222222 26.9755315,54.2222222 L59.731534,54.2222222 C60.8361035,54.2222222 61.731534,53.3267917 61.731534,52.2222222 C61.731534,51.1176527 60.8361035,50.2222222 59.731534,50.2222222 Z" id="Path"></path>
                    </g>
                </g>
            </g>
        </g>
    </g>
</svg>