<?xml version="1.0" encoding="UTF-8"?>
<svg width="83px" height="84px" viewBox="0 0 83 84" version="1.1" xmlns="http://www.w3.org/2000/svg" xmlns:xlink="http://www.w3.org/1999/xlink">
    <!-- Generator: Sketch 55.2 (78181) - https://sketchapp.com -->
    <title>grid</title>
    <desc>Created with Sketch.</desc>
    <g id="Welcome" stroke="none" stroke-width="1" fill="none" fill-rule="evenodd">
        <g id="Desktop-HD-Dark" transform="translate(-491.000000, -838.000000)" fill="#C2C2C2" fill-rule="nonzero">
            <g id="Features" transform="translate(21.000000, 755.000000)">
                <g id="Grid" transform="translate(469.000000, 85.000000)">
                    <g id="grid" transform="translate(3.884477, 0.000000)">
                        <path d="M-2,0 C-2,-1.1045695 -1.1045695,-2 0,-2 L30.2125953,-2 C31.3171648,-2 32.2125953,-1.1045695 32.2125953,0 L32.2125953,31.1111111 C32.2125953,32.2156806 31.3171648,33.1111111 30.2125953,33.1111111 L0,33.1111111 C-1.1045695,33.1111111 -2,32.2156806 -2,31.1111111 L-2,0 Z M2,2 L2,29.1111111 L28.2125953,29.1111111 L28.2125953,2 L2,2 Z" id="Rectangle"></path>
                        <path d="M45.4769354,0 C45.4769354,-1.1045695 46.3723659,-2 47.4769354,-2 L77.6895307,-2 C78.7941002,-2 79.6895307,-1.1045695 79.6895307,0 L79.6895307,31.1111111 C79.6895307,32.2156806 78.7941002,33.1111111 77.6895307,33.1111111 L47.4769354,33.1111111 C46.3723659,33.1111111 45.4769354,32.2156806 45.4769354,31.1111111 L45.4769354,0 Z M49.4769354,2 L49.4769354,29.1111111 L75.6895307,29.1111111 L75.6895307,2 L49.4769354,2 Z" id="Rectangle"></path>
                        <path d="M45.4769354,48.8888889 C45.4769354,47.7843194 46.3723659,46.8888889 47.4769354,46.8888889 L77.6895307,46.8888889 C78.7941002,46.8888889 79.6895307,47.7843194 79.6895307,48.8888889 L79.6895307,80 C79.6895307,81.1045695 78.7941002,82 77.6895307,82 L47.4769354,82 C46.3723659,82 45.4769354,81.1045695 45.4769354,80 L45.4769354,48.8888889 Z M49.4769354,50.8888889 L49.4769354,78 L75.6895307,78 L75.6895307,50.8888889 L49.4769354,50.8888889 Z" id="Rectangle"></path>
                        <path d="M-2,48.8888889 C-2,47.7843194 -1.1045695,46.8888889 0,46.8888889 L30.2125953,46.8888889 C31.3171648,46.8888889 32.2125953,47.7843194 32.2125953,48.8888889 L32.2125953,80 C32.2125953,81.1045695 31.3171648,82 30.2125953,82 L0,82 C-1.1045695,82 -2,81.1045695 -2,80 L-2,48.8888889 Z M2,50.8888889 L2,78 L28.2125953,78 L28.2125953,50.8888889 L2,50.8888889 Z" id="Rectangle"></path>
                    </g>
                </g>
            </g>
        </g>
    </g>
</svg>