<svg width="792" height="262" viewBox="0 0 792 262" fill="none" xmlns="http://www.w3.org/2000/svg">
<path id="Graffino dark" fill-rule="evenodd" clip-rule="evenodd" d="M754.627 182.364C760.348 182.364 764.986 177.726 764.986 172.005C764.986 166.283 760.348 161.645 754.627 161.645C748.905 161.645 744.267 166.283 744.267 172.005C744.267 177.726 748.905 182.364 754.627 182.364ZM749.134 170.313H750.894V175.124H751.513V170.313H753.281V169.719H749.134V170.313ZM756.918 173.611L754.941 169.719H754.177V175.124H754.763V170.669L756.725 174.552H757.096L759.065 170.669L759.073 175.124H759.644V169.719H758.887L756.918 173.611ZM125.715 107.89C125.594 107.868 125.482 107.826 125.348 107.826C121.022 107.826 85.0728 108.964 77.3319 108.964C73.9165 108.964 70.9563 116.933 70.9563 122.625C70.9563 126.496 72.095 129.228 75.5103 128.318C81.658 128.089 80.7223 127.407 101.442 127.407C105.897 127.407 109.847 127.407 112.992 127.454C101.191 151.506 74.5257 182.34 46.9454 182.34C30.9574 182.34 24.8336 171.794 24.8336 156.486C24.8336 110.561 81.3049 19.7305 120.766 19.7305C130.631 19.7305 134.033 25.1735 134.033 32.6584C134.033 46.2656 122.127 66.6764 116.343 70.079C114.302 70.4184 113.281 71.779 113.281 73.1406C113.281 75.1816 116.003 77.9023 120.766 77.9023C136.414 77.9023 156.145 56.1303 156.145 37.7599C156.145 14.288 122.127 0 103.756 0C59.1925 0 0 81.9852 0 143.218C0 178.598 21.7719 206.153 49.3273 206.153C69.7381 206.153 91.51 190.164 106.138 163.63C101.035 185.742 96.2732 209.896 96.2732 221.802C96.2732 235.069 111.581 242.893 120.086 242.893C122.466 242.893 124.508 241.872 124.508 239.831C124.508 237.11 123.828 236.43 122.466 234.049C122.466 211.256 131.993 142.198 141.177 124.848C142.538 123.827 143.218 122.127 143.218 120.767C143.218 115.21 132.864 108.415 125.715 107.89ZM532.108 55.7907C534.149 55.7907 535.51 54.77 535.51 52.3897C536.19 43.8835 547.756 22.453 552.52 17.009C553.54 15.9883 554.221 15.3085 554.221 14.2883C554.221 8.84584 540.953 1.7013 532.108 1.7013C528.025 1.7013 525.984 3.06191 523.943 6.46344C519.521 13.2676 515.439 27.5556 515.439 37.7602C515.439 47.9664 525.984 55.7907 532.108 55.7907ZM717.839 135.395C704.232 133.693 693.686 127.909 693.686 115.664C693.686 113.281 694.026 110.901 694.706 108.52C699.129 101.036 703.892 96.2727 708.654 96.2727C716.139 96.2727 719.2 106.138 719.2 118.725C719.2 123.828 718.859 129.611 717.839 135.395ZM689.603 184.042C682.459 184.042 679.739 175.877 679.739 164.651C679.739 154.105 682.12 140.837 685.861 128.93C692.665 138.116 703.211 144.239 715.118 147.981C710.015 167.031 700.49 184.042 689.603 184.042ZM442.304 246.635C437.541 246.635 435.841 239.831 435.841 228.265C435.841 214.317 438.902 193.906 443.325 171.114C446.386 172.474 449.788 173.155 453.189 173.836C454.551 182.68 454.891 191.865 454.891 200.71C454.891 227.244 450.129 246.635 442.304 246.635ZM376.315 246.635C371.552 246.635 369.852 239.831 369.852 228.265C369.852 214.317 372.913 193.906 377.335 171.114C380.397 172.474 383.799 173.155 387.2 173.836C388.561 182.68 388.902 191.865 388.902 200.71C388.902 227.244 384.14 246.635 376.315 246.635ZM306.921 121.787C298.076 147.3 283.789 183.7 274.944 183.7C271.882 183.7 270.182 178.939 270.182 171.453C270.182 147.641 285.149 97.9743 303.52 97.9743C307.261 97.9743 309.983 99.6742 312.705 101.376C310.664 107.5 308.622 114.644 306.921 121.787ZM776.352 97.6333C772.949 97.6333 770.568 100.016 770.568 102.057C770.568 103.417 771.248 104.777 773.63 105.798C775.331 107.839 776.352 110.22 776.352 112.261C776.352 122.808 757.981 131.992 738.25 134.714C738.59 130.972 738.931 127.23 738.931 123.828C738.931 118.385 738.59 113.281 737.569 109.2C732.127 87.7686 707.294 80.6246 696.067 80.6246C671.323 80.6246 657.262 117.816 655.184 147.876C644.183 174.307 634.878 184.381 630.076 184.381C626.675 184.381 625.654 179.618 625.654 172.135C625.654 150.702 637.22 107.158 645.044 98.6535C645.724 97.9743 646.064 97.2934 646.064 96.2727C646.064 91.1701 631.437 82.3246 621.571 82.3246C619.189 82.3246 616.469 84.0256 613.747 87.0878C600.14 103.757 579.728 142.879 567.482 170.774C568.842 145.94 579.389 105.117 586.532 96.6131C587.213 95.9328 587.893 95.2525 587.893 94.5717C587.893 89.8095 573.946 82.3246 565.1 82.3246C561.359 82.3246 558.977 83.6862 558.297 86.7479C553.141 98.5016 548.489 119.005 545.622 138.485C533.063 171.953 523.161 184.381 518.161 184.381C514.079 184.381 512.377 178.598 512.377 170.093C512.377 147.3 523.263 105.798 530.747 97.6333C531.428 96.9535 532.107 96.2727 532.107 95.2525C532.107 90.4893 517.82 83.3453 508.975 83.3453C505.233 83.3453 502.852 84.366 502.171 87.4277C495.964 100.878 490.94 124.355 488.887 145.155C481.232 155.456 471.065 159.208 460.675 159.208H460.333C457.613 151.383 454.551 143.899 450.809 137.436C462.035 90.8303 476.663 45.9247 483.807 41.5025C484.828 40.8222 485.167 40.4823 485.167 39.4615C485.167 34.6999 470.88 27.5554 461.695 27.5554C457.952 27.5554 455.231 28.5761 454.551 31.6378C444.515 56.4214 432.013 101.676 423.653 144.088C415.918 155.191 405.423 159.208 394.685 159.208H394.344C391.623 151.383 388.561 143.899 384.819 137.436C396.046 90.8303 410.674 45.9247 417.817 41.5025C418.838 40.8222 419.178 40.4823 419.178 39.4615C419.178 34.6999 404.891 27.5554 395.706 27.5554C391.963 27.5554 389.241 28.5761 388.561 31.6378C377.955 57.8288 364.595 106.883 356.279 151.282C346.259 175.185 337.993 184.381 333.115 184.381C329.374 184.381 327.672 178.258 327.672 169.753C327.672 147.641 337.539 107.5 344.002 99.6742C349.444 95.5924 333.456 85.3862 323.591 85.3862C320.189 85.3862 317.808 86.4069 317.127 89.4686C316.788 90.4893 316.107 91.5095 315.767 92.8717C307.602 86.4069 295.695 80.2836 287.53 80.2836C268.547 80.2836 253.857 112.163 248.208 141.552C235.93 173.601 223.911 184.381 217.119 184.381C212.697 184.381 210.995 179.959 210.995 172.474C210.995 151.723 226.304 108.86 232.767 102.736C233.788 101.716 234.128 101.036 234.128 99.6742C234.128 93.5509 223.923 83.0054 214.057 83.0054C212.355 83.0054 210.315 83.3453 208.614 84.0256C202.831 86.7479 197.048 88.7888 190.244 89.1292C192.625 80.9645 197.048 71.779 199.429 69.3977C200.45 68.7174 200.79 67.6966 200.79 67.0169C200.79 62.5941 189.223 56.1304 181.4 56.1304C177.997 56.1304 175.276 57.1511 173.915 59.8734C169.153 68.378 165.071 79.2645 165.071 88.1085C165.071 94.5717 167.112 99.6742 171.194 101.716C163.029 120.425 143.299 152.404 143.299 166.011C143.299 174.175 150.783 181.32 154.865 181.32C155.885 181.32 156.906 180.639 156.906 178.598C156.906 169.072 177.317 122.467 183.44 104.096H185.822C191.604 104.096 196.707 103.076 203.172 101.376C195.007 120.086 184.801 148.321 184.801 167.371C184.801 171.794 185.481 175.536 186.502 178.939C190.584 191.865 208.273 200.03 217.8 200.03C227.339 200.03 237.292 191.451 246.427 175.814C246.937 178.996 247.709 181.786 248.75 184.042C252.491 192.205 266.779 200.03 274.944 200.03C286.17 200.03 295.356 185.061 302.839 166.011C303.52 173.155 304.88 178.939 306.24 183.36C309.983 192.205 323.93 200.03 332.436 200.03C338.573 200.03 344.586 196.001 350.446 188.584C349.152 199.469 348.419 209.38 348.419 217.719C348.419 227.244 349.44 235.069 351.481 240.512C356.924 254.119 368.15 261.603 377.675 261.603C395.364 261.603 403.871 240.172 403.871 212.616C403.871 200.37 402.169 187.103 398.767 173.836C405.234 173.189 412.621 171.154 419.544 166.792C416.365 186.247 414.409 204.079 414.409 217.719C414.409 227.244 415.429 235.069 417.47 240.512C422.913 254.119 434.14 261.603 443.664 261.603C461.354 261.603 469.86 240.172 469.86 212.616C469.86 200.37 468.158 187.103 464.757 173.836C471.966 173.114 480.322 170.673 487.901 165.198C487.984 172.963 488.693 179.218 490.605 183.36C495.027 192.886 509.656 200.03 517.82 200.03C525.743 200.03 534.34 191.667 542.761 176.397C542.993 180.38 543.57 183.586 544.349 185.402C546.39 192.205 558.637 200.03 564.761 200.03C567.141 200.03 568.842 199.009 568.842 196.628C572.925 179.279 597.759 131.992 611.705 111.921C606.263 130.632 600.82 152.743 600.82 168.733C600.82 173.836 601.5 178.258 602.521 181.32C605.924 192.886 621.231 200.03 630.076 200.03C638.211 200.03 647.847 190.714 657.089 173.796C657.545 175.428 658.064 176.926 658.646 178.258C664.43 189.484 681.099 200.03 691.305 200.03C715.118 200.03 729.405 175.877 735.188 151.383C737.569 151.723 739.611 151.723 741.652 151.723C769.547 151.723 792 141.518 792 124.508C792 113.623 784.516 97.6333 776.352 97.6333Z" fill="#1D2230"/>
</svg>
