<?xml version="1.0" encoding="UTF-8"?>
<svg width="150px" height="51px" viewBox="0 0 150 51" version="1.1" xmlns="http://www.w3.org/2000/svg" xmlns:xlink="http://www.w3.org/1999/xlink">
    <!-- Generator: Sketch 55.2 (78181) - https://sketchapp.com -->
    <title>logo</title>
    <desc>Created with Sketch.</desc>
    <g id="Welcome" stroke="none" stroke-width="1" fill="none" fill-rule="evenodd" opacity="0.900000036">
        <g id="Desktop-HD-Dark" transform="translate(-49.000000, -30.000000)" fill="#FFFFFF" fill-rule="nonzero">
            <g id="Header" transform="translate(20.000000, 20.000000)">
                <path d="M171.994505,45.5932203 C173.132455,45.5932203 174.054945,44.6446711 174.054945,43.4745763 C174.054945,42.3044815 173.132455,41.3559322 171.994505,41.3559322 C170.856556,41.3559322 169.934066,42.3044815 169.934066,43.4745763 C169.934066,44.6446711 170.856556,45.5932203 171.994505,45.5932203 Z M170.758242,43.1440936 L171.108007,43.1440936 L171.108007,43.8983051 L171.230963,43.8983051 L171.230963,43.1440936 L171.582418,43.1440936 L171.582418,43.0508475 L170.758242,43.0508475 L170.758242,43.1440936 Z M171.995586,43.6610269 L171.697618,43.0508475 L171.582418,43.0508475 L171.582418,43.8983051 L171.670799,43.8983051 L171.670799,43.1997915 L171.966526,43.8086389 L172.022405,43.8086389 L172.319252,43.1997915 L172.320453,43.8983051 L172.406593,43.8983051 L172.406593,43.0508475 L172.292434,43.0508475 L171.995586,43.6610269 Z M52.8880979,31.0801844 C52.8649888,31.0758264 52.843696,31.0675252 52.8183668,31.0675252 C51.996327,31.0675252 45.1653032,31.2898916 43.6943908,31.2898916 C43.0454173,31.2898916 42.4829265,32.8469748 42.4829265,33.9591179 C42.4829265,34.7153502 42.6992846,35.24932 43.3482581,35.0713646 C44.5164306,35.0267461 44.3386213,34.8934093 48.2756532,34.8934093 C49.1223159,34.8934093 49.8729091,34.8935131 50.4704168,34.9025405 C48.2280221,39.6020141 43.1611648,45.6265545 37.9204339,45.6265545 C34.8824387,45.6265545 33.7188073,43.5660081 33.7188073,40.5750096 C33.7188073,31.6019101 44.4493232,13.8550418 51.9476868,13.8550418 C53.8221515,13.8550418 54.4685013,14.9185195 54.4685013,16.3809699 C54.4685013,19.0396123 52.2062267,23.0275758 51.1071798,23.692392 C50.71937,23.7586972 50.5254146,24.0245407 50.5254146,24.2905917 C50.5254146,24.6893569 51.0425953,25.2209401 51.9476868,25.2209401 C54.9210975,25.2209401 58.6703297,20.9670294 58.6703297,17.3777273 C58.6703297,12.7916679 52.2062267,10 48.7154334,10 C40.2475957,10 29,26.0186781 29,37.9826724 C29,44.8953293 33.1370421,50.2792305 38.3730301,50.2792305 C42.2514313,50.2792305 46.3884734,47.1552064 49.1681305,41.9708435 C48.1984545,46.2911632 47.2935649,51.0104557 47.2935649,53.3367419 C47.2935649,55.9289752 50.2023911,57.4576271 51.8183159,57.4576271 C52.2707103,57.4576271 52.658621,57.2581926 52.658621,56.8593236 C52.658621,56.3277404 52.529452,56.1948187 52.2707103,55.7296445 C52.2707103,51.2762992 54.0808932,37.7833417 55.8259871,34.3934741 C56.0847288,34.1940397 56.2138979,33.8618909 56.2138979,33.5960475 C56.2138979,32.5102605 54.246492,31.1827033 52.8880979,31.0801844 M129.440911,21.0169492 C129.831369,21.0169492 130.091708,20.8250399 130.091708,20.377518 C130.221725,18.7782412 132.433947,14.7490461 133.344982,13.7254969 C133.540211,13.5335877 133.67033,13.4057813 133.67033,13.213972 C133.67033,12.1907224 131.13276,10.8474576 129.440911,10.8474576 C128.660097,10.8474576 128.269741,11.10327 127.879283,11.742801 C127.033561,13.0220627 126.252747,15.7083925 126.252747,17.6269855 C126.252747,19.5458781 128.269741,21.0169492 129.440911,21.0169492 M164.725196,36.2711864 C162.087875,35.9394555 160.043956,34.8118397 160.043956,32.424599 C160.043956,31.9600308 160.109832,31.4959803 160.241688,31.0317227 C161.098905,29.5726865 162.021999,28.6440678 162.944989,28.6440678 C164.395711,28.6440678 164.989011,30.5673615 164.989011,33.0213833 C164.989011,34.0160583 164.923032,35.1435706 164.725196,36.2711864 M159.409859,45.5932203 C158.078469,45.5932203 157.571429,43.9610719 157.571429,41.7168942 C157.571429,39.6087113 158.015126,36.9565496 158.712393,34.5762712 C159.98044,36.4124648 161.945754,37.636523 164.164835,38.384653 C163.213899,42.1927164 161.438713,45.5932203 159.409859,45.5932203 M112.536151,57.4576271 C111.71186,57.4576271 111.417582,56.1595429 111.417582,53.9532151 C111.417582,51.2925122 111.947411,47.3988674 112.712699,43.0508475 C113.242528,43.3103022 113.831268,43.4402829 114.419824,43.5700609 C114.655467,45.2571753 114.714286,47.009432 114.714286,48.696749 C114.714286,53.7584974 113.890179,57.4576271 112.536151,57.4576271 M100.173422,57.4576271 C99.3491311,57.4576271 99.0549451,56.1595429 99.0549451,53.9532151 C99.0549451,51.2925122 99.584774,47.3988674 100.350062,43.0508475 C100.879891,43.3103022 101.468539,43.4402829 102.057187,43.5700609 C102.292738,45.2571753 102.351648,47.009432 102.351648,48.696749 C102.351648,53.7584974 101.527541,57.4576271 100.173422,57.4576271 M87.2197308,33.3521774 C85.5053998,38.396498 82.7363255,45.5932203 81.0218916,45.5932203 C80.4284891,45.5932203 80.0989011,44.6517874 80.0989011,43.1718078 C80.0989011,38.4638032 82.9999341,28.6440678 86.5604519,28.6440678 C87.2856072,28.6440678 87.8131333,28.9801738 88.3406593,29.3165949 C87.945092,30.5273536 87.5494217,31.939818 87.2197308,33.3521774 M176.037739,28.7869244 C175.393511,28.7869244 174.942813,29.2527497 174.942813,29.651806 C174.942813,29.9177397 175.071598,30.1837772 175.522397,30.3833573 C175.84451,30.7824135 176.037739,31.2480311 176.037739,31.6469836 C176.037739,33.7092417 172.560035,35.5050469 168.824961,36.0372258 C168.889203,35.3054668 168.953847,34.5739156 168.953847,33.9086141 C168.953847,32.844464 168.889203,31.8465636 168.695975,31.0484511 C167.665693,26.8581004 162.96468,25.4612477 160.839372,25.4612477 C156.15535,25.4612477 153.493386,32.7331477 153.100093,38.610791 C151.017513,43.7787932 149.25604,45.74853 148.347004,45.74853 C147.703178,45.74853 147.50995,44.817191 147.50995,43.3539846 C147.50995,39.1633225 149.699399,30.6492909 151.18048,28.9864006 C151.309366,28.8535896 151.373708,28.720467 151.373708,28.5208869 C151.373708,27.5231943 148.604675,25.7936388 146.737037,25.7936388 C146.286138,25.7936388 145.771098,26.1262376 145.255856,26.7249778 C142.679951,29.9841971 138.815891,37.6336586 136.497757,43.0879471 C136.755227,38.2321911 138.751649,30.2502346 140.103944,28.5874482 C140.23283,28.4544294 140.361515,28.3214107 140.361515,28.1882881 C140.361515,27.2571567 137.721267,25.7936388 136.046757,25.7936388 C135.338589,25.7936388 134.88759,26.059884 134.758905,26.6585204 C133.782912,28.9567025 132.902226,32.965645 132.359539,36.7744883 C129.982089,43.3184714 128.107515,45.74853 127.160978,45.74853 C126.388166,45.74853 126.066053,44.6177148 126.066053,42.9548245 C126.066053,38.4982287 128.126918,30.3833573 129.543656,28.7869244 C129.672542,28.6540095 129.801126,28.5208869 129.801126,28.3214107 C129.801126,27.3900716 127.096435,25.9932189 125.422126,25.9932189 C124.713657,25.9932189 124.262858,26.1927989 124.134073,26.7914353 C122.95892,29.4212817 122.00786,34.0118308 121.619192,38.0788198 C120.170082,40.0928962 118.245542,40.8264205 116.278576,40.8264205 L116.213932,40.8264205 C115.698892,39.2964451 115.119308,37.8332387 114.410838,36.5694047 C116.536046,27.4567368 119.30518,18.67646 120.657575,17.8117862 C120.850804,17.6787674 120.915146,17.6123099 120.915146,17.4127299 C120.915146,16.4817024 118.210455,15.0847458 116.471704,15.0847458 C115.763234,15.0847458 115.247993,15.2843258 115.119308,15.8829622 C113.219399,20.7288534 110.852807,29.5773529 109.270086,37.8701018 C107.805895,40.0409763 105.819225,40.8264205 103.786409,40.8264205 L103.721865,40.8264205 C103.206825,39.2964451 102.62714,37.8332387 101.918771,36.5694047 C104.043979,27.4567368 106.813113,18.67646 108.165408,17.8117862 C108.358636,17.6787674 108.422978,17.6123099 108.422978,17.4127299 C108.422978,16.4817024 105.718388,15.0847458 103.979637,15.0847458 C103.271167,15.0847458 102.755825,15.2843258 102.62714,15.8829622 C100.619357,21.0040288 98.090301,30.5953981 96.5160247,39.2768194 C94.6191319,43.9503365 93.0544064,45.74853 92.1309931,45.74853 C91.4227246,45.74853 91.1006108,44.5512573 91.1006108,42.888367 C91.1006108,38.56479 92.9683485,30.7160599 94.1918585,29.1859807 C95.2221403,28.3878681 92.1955366,26.3922752 90.3278994,26.3922752 C89.6838727,26.3922752 89.2331746,26.5918552 89.1042889,27.1904916 C89.040047,27.3900716 88.9111613,27.5895479 88.8468189,27.8558969 C87.3011951,26.5918552 85.0471016,25.3945825 83.5014778,25.3945825 C79.9078571,25.3945825 77.1270612,31.6278771 76.0575707,37.3742668 C73.7334045,43.6406863 71.4579976,45.74853 70.1722565,45.74853 C69.3352028,45.74853 69.0130889,44.8838562 69.0130889,43.4203383 C69.0130889,39.3629025 71.9111085,30.9819936 73.1346185,29.7847209 C73.3277461,29.5851408 73.392189,29.4522259 73.392189,29.1859807 C73.392189,27.988708 71.4604105,25.9267614 69.5926727,25.9267614 C69.2705589,25.9267614 68.8842032,25.9932189 68.5622903,26.1262376 C67.4674651,26.6585204 66.3728409,27.0575767 65.0847875,27.124138 C65.5354855,25.5277051 66.3728409,23.7316922 66.8235389,23.2660746 C67.016767,23.1330559 67.0811094,22.9334758 67.0811094,22.8005609 C67.0811094,21.9357832 64.8915594,20.6719492 63.4104789,20.6719492 C62.7663517,20.6719492 62.2513113,20.8715292 61.9935398,21.403812 C61.0920432,23.0667023 60.3193318,25.195314 60.3193318,26.9245579 C60.3193318,28.1882881 60.7056875,29.1859807 61.4784994,29.5851408 C59.9328755,33.2434164 56.1978022,39.4960251 56.1978022,42.1566081 C56.1978022,43.7530409 57.6145403,45.1498937 58.3873522,45.1498937 C58.5804798,45.1498937 58.7737079,45.0167711 58.7737079,44.6177148 C58.7737079,42.7552444 62.637667,33.6425765 63.7966336,30.0506546 L64.2476332,30.0506546 C65.3422574,30.0506546 66.3082975,29.8511784 67.5320085,29.5186834 C65.9863846,33.1770628 64.0544051,38.6978087 64.0544051,42.4226456 C64.0544051,43.2874233 64.1830898,44.0189746 64.3763179,44.6843799 C65.1490293,47.2118403 68.4977469,48.8082731 70.3011423,48.8082731 C72.1069505,48.8082731 73.9910755,47.1308452 75.7204772,44.0733867 C75.8169907,44.6954908 75.9630679,45.2411689 76.1601164,45.6821764 C76.8683849,47.2782977 79.5731763,48.8082731 81.1188002,48.8082731 C83.2440079,48.8082731 84.9828598,45.8815488 86.3994974,42.1566081 C86.5283831,43.5535647 86.7859536,44.6843799 87.0434235,45.54895 C87.7518931,47.2782977 90.3921412,48.8082731 92.0023084,48.8082731 C93.1641905,48.8082731 94.3023463,48.0205445 95.4117492,46.5703181 C95.1667456,48.6987221 95.0281079,50.6364763 95.0281079,52.2670725 C95.0281079,54.129439 95.2212355,55.6594144 95.6076917,56.7236683 C96.6379736,59.3842512 98.7631812,60.8474576 100.566275,60.8474576 C103.914993,60.8474576 105.52526,56.6572108 105.52526,51.269276 C105.52526,48.8747306 105.203147,46.2807089 104.55922,43.6865835 C105.783334,43.5601066 107.181774,43.1622964 108.492348,42.3094602 C107.890445,46.1133192 107.520175,49.6000515 107.520175,52.2670725 C107.520175,54.129439 107.713403,55.6594144 108.099759,56.7236683 C109.130141,59.3842512 111.255349,60.8474576 113.058443,60.8474576 C116.40716,60.8474576 118.017327,56.6572108 118.017327,51.269276 C118.017327,48.8747306 117.695214,46.2807089 117.051287,43.6865835 C118.416149,43.5454652 119.997966,43.0682175 121.432599,41.9977332 C121.448283,43.5158709 121.582497,44.7388958 121.944523,45.54895 C122.781677,47.4114203 125.551012,48.8082731 127.096435,48.8082731 C128.596315,48.8082731 130.223674,47.173108 131.817957,44.1874027 C131.86179,44.9660973 131.971072,45.5930819 132.118456,45.9481101 C132.504912,47.2782977 134.823247,48.8082731 135.982515,48.8082731 C136.433213,48.8082731 136.755227,48.608693 136.755227,48.1431793 C137.528039,44.7508374 142.229253,35.5050469 144.8694,31.58063 C143.839118,35.2390094 142.808736,39.5624826 142.808736,42.688787 C142.808736,43.6865835 142.937521,44.5512573 143.130649,45.1498937 C143.774876,47.4114203 146.672594,48.8082731 148.347004,48.8082731 C149.886997,48.8082731 151.711103,46.9867156 153.460712,43.6788993 C153.546971,43.9978951 153.645294,44.290931 153.755481,44.5512573 C154.850406,46.7463265 158.005896,48.8082731 159.937976,48.8082731 C164.445861,48.8082731 167.150452,44.0857436 168.245277,39.2964451 C168.695975,39.3629025 169.082431,39.3629025 169.468887,39.3629025 C174.749585,39.3629025 179,37.3676211 179,34.0417367 C179,31.9133326 177.583262,28.7869244 176.037739,28.7869244" id="logo"></path>
            </g>
        </g>
    </g>
</svg>