<?xml version="1.0" encoding="UTF-8"?>
<svg width="83px" height="84px" viewBox="0 0 83 84" version="1.1" xmlns="http://www.w3.org/2000/svg" xmlns:xlink="http://www.w3.org/1999/xlink">
    <!-- Generator: Sketch 55.2 (78181) - https://sketchapp.com -->
    <title>tool</title>
    <desc>Created with Sketch.</desc>
    <g id="Welcome" stroke="none" stroke-width="1" fill="none" fill-rule="evenodd">
        <g id="Desktop-HD-Dark" transform="translate(-731.000000, -838.000000)" fill="#C2C2C2" fill-rule="nonzero">
            <g id="Features" transform="translate(21.000000, 755.000000)">
                <g id="Tools" transform="translate(709.000000, 85.000000)">
                    <g id="tool" transform="translate(3.884477, 0.000000)">
                        <path d="M49.2757323,19.5014438 C48.4586254,20.3664255 48.4605182,21.7681417 49.2676555,22.6162201 L55.7941613,29.3369662 C56.601157,30.1515048 57.8685583,30.1515048 58.66155,29.3512431 L74.0726262,13.4818451 C75.0616407,12.4634175 76.7672664,12.7708833 77.3384074,14.0705534 C81.8736201,24.3907378 79.7273086,36.5208915 71.9398356,44.5399622 C64.467969,52.2340405 53.2986937,54.601986 43.52317,50.6814225 L16.2380813,78.7779637 C12.0661064,83.0740121 5.27703907,83.0740121 1.10506422,78.7779637 C-3.03502141,74.5147528 -3.03502141,67.6263204 1.10506422,63.3631096 L28.4391169,35.2161483 C24.6029026,25.1815463 26.8810804,13.7002097 34.3542425,6.00479745 C42.1641578,-2.03738299 54.013613,-4.26058944 64.0886962,0.43417519 C65.3359487,1.01536709 65.6373634,2.65322143 64.6787316,3.6403627 L49.2757323,19.5014438 Z M61.5171074,32.1522059 C59.1450596,34.5464249 55.3246557,34.5464249 52.938604,32.137929 L46.3842418,25.3884982 C44.091043,22.9793903 44.091043,19.1465906 46.3842418,16.7374827 L46.3980943,16.7230749 L59.7112665,3.01397187 C51.8361363,0.528404108 43.1659602,2.67260848 37.2238038,8.79148331 C30.5738049,15.6392516 28.7352321,26.0301815 32.617672,34.8649371 C32.9450786,35.6099732 32.7884047,36.4791008 32.221452,37.0629146 L3.97462549,66.1497954 C1.3417915,68.8609293 1.3417915,73.2801439 3.97462549,75.9912778 C6.57557025,78.6695741 10.7675752,78.6695741 13.36852,75.9912778 L41.6153465,46.904397 C42.2084567,46.2936478 43.1231912,46.1253091 43.8948724,46.4848953 C52.4215178,50.4581224 62.4427178,48.577935 69.0702744,41.7532764 C75.0112837,35.6355828 77.1121169,26.6899617 74.7241993,18.5524609 L61.5171074,32.1522059 Z" id="Path"></path>
                    </g>
                </g>
            </g>
        </g>
    </g>
</svg>