<?xml version="1.0" encoding="UTF-8"?>
<svg width="14px" height="14px" viewBox="0 0 14 14" version="1.1" xmlns="http://www.w3.org/2000/svg" xmlns:xlink="http://www.w3.org/1999/xlink">
    <!-- Generator: Sketch 58 (84663) - https://sketch.com -->
    <title>coffee</title>
    <desc>Created with Sketch.</desc>
    <g id="Page-1" stroke="none" stroke-width="1" fill="none" fill-rule="evenodd">
        <g id="coffee" fill="#1D2230" fill-rule="nonzero">
            <path d="M10.1684211,5.91111111 L10.7578947,5.91111111 C11.6531773,5.91111111 12.3789474,6.67720165 12.3789474,7.62222222 C12.3789474,8.56724276 11.6531773,9.33333333 10.7578947,9.33333333 L10.1684211,9.33333333 C9.76147443,9.33333333 9.43157895,9.68155634 9.43157895,10.1111111 C9.43157895,10.5406659 9.76147443,10.8888889 10.1684211,10.8888889 L10.7578947,10.8888889 C12.4670707,10.8888889 13.8526316,9.42635237 13.8526316,7.62222222 C13.8526316,5.81809204 12.4670707,4.35555556 10.7578947,4.35555556 L10.1684211,4.35555556 C9.76147443,4.35555556 9.43157895,4.70377853 9.43157895,5.13333333 C9.43157895,5.56288814 9.76147443,5.91111111 10.1684211,5.91111111 Z" id="Path"></path>
            <path d="M0,5.13333333 C0,4.70377853 0.329895447,4.35555556 0.736842105,4.35555556 L10.1684211,4.35555556 C10.5753677,4.35555556 10.9052632,4.70377853 10.9052632,5.13333333 L10.9052632,10.7333333 C10.9052632,12.5374635 9.51970224,14 7.81052632,14 L3.09473684,14 C1.38556088,14 0,12.5374635 0,10.7333333 L0,5.13333333 Z M1.47368421,5.91111111 L1.47368421,10.7333333 C1.47368421,11.6783539 2.19945419,12.4444444 3.09473684,12.4444444 L7.81052632,12.4444444 C8.70580893,12.4444444 9.43157895,11.6783539 9.43157895,10.7333333 L9.43157895,5.91111111 L1.47368421,5.91111111 Z" id="Path"></path>
            <path d="M2.35789474,0.777777778 L2.35789474,2.64444444 C2.35789474,3.07399925 2.68779018,3.42222222 3.09473684,3.42222222 C3.5016835,3.42222222 3.83157895,3.07399925 3.83157895,2.64444444 L3.83157895,0.777777778 C3.83157895,0.348222972 3.5016835,0 3.09473684,0 C2.68779018,0 2.35789474,0.348222972 2.35789474,0.777777778 Z" id="Path"></path>
            <path d="M4.71578947,0.777777778 L4.71578947,2.64444444 C4.71578947,3.07399925 5.04568492,3.42222222 5.45263158,3.42222222 C5.85957824,3.42222222 6.18947368,3.07399925 6.18947368,2.64444444 L6.18947368,0.777777778 C6.18947368,0.348222972 5.85957824,0 5.45263158,0 C5.04568492,0 4.71578947,0.348222972 4.71578947,0.777777778 Z" id="Path"></path>
            <path d="M7.07368421,0.777777778 L7.07368421,2.64444444 C7.07368421,3.07399925 7.40357966,3.42222222 7.81052632,3.42222222 C8.21747294,3.42222222 8.54736842,3.07399925 8.54736842,2.64444444 L8.54736842,0.777777778 C8.54736842,0.348222972 8.21747294,0 7.81052632,0 C7.40357966,0 7.07368421,0.348222972 7.07368421,0.777777778 Z" id="Path"></path>
        </g>
    </g>
</svg>